<svg class="svg-icon" style="width: 1em;height: 1em;vertical-align: middle;fill: currentColor;overflow: hidden;" viewBox="0 0 1024 1024" version="1.1" xmlns="http://www.w3.org/2000/svg"><path d="M806.9632 699.2128a66.8928 66.8928 0 0 0-20.0704-30.4128 142.2848 142.2848 0 0 0-32.2304-18.8416 782.4128 782.4128 0 0 0-77.2352-32.5376 318.0032 318.0032 0 0 1-36.1728-12.4672 99.1232 99.1232 0 0 1-28.16-17.92 61.6448 61.6448 0 0 1-20.48-42.88 86.656 86.656 0 0 1 5.7856-36.48 33.7664 33.7664 0 0 1 6.6816-10.24 58.7008 58.7008 0 0 1 9.1136-7.9104 86.0416 86.0416 0 0 0 11.2384-9.728 49.5616 49.5616 0 0 0 9.728-13.6704c2.7392-6.0928 5.12-12.16 7.68-18.2528a190.2592 190.2592 0 0 0 5.7856-21.888 30.4128 30.4128 0 0 0 10.6496-7.9104 50.176 50.176 0 0 0 9.728-13.9776 78.4384 78.4384 0 0 0 6.0928-23.7056 57.7536 57.7536 0 0 0 0-19.1488 52.5824 52.5824 0 0 0-4.2496-12.8 16.7168 16.7168 0 0 0-6.3744-8.8064 354.8416 354.8416 0 0 0-3.3536-56.8576 273.6384 273.6384 0 0 0-11.5456-51.3792 164.1728 164.1728 0 0 0-24.6272-50.176 98.2016 98.2016 0 0 0-19.456-19.456 140.4672 140.4672 0 0 0-26.7776-17.7408 215.8592 215.8592 0 0 0-32.9216-12.4672 133.7856 133.7856 0 0 0-36.48-4.864 185.1648 185.1648 0 0 0-30.4384 3.0464 133.4784 133.4784 0 0 0-30.3872 9.7536 141.696 141.696 0 0 0-62.9248 51.3792 160.2304 160.2304 0 0 0-20.0704 46.208 364.8768 364.8768 0 0 0-10.24 102.4 53.76 53.76 0 0 0-7.9104 14.8992 78.1312 78.1312 0 0 0-4.864 15.5136 55.3216 55.3216 0 0 0 2.56 21.5808 56.32 56.32 0 0 0 7.9104 18.5344 79.9488 79.9488 0 0 0 8.5248 10.0352 27.9808 27.9808 0 0 0 9.4208 4.864l6.6816 22.1952c2.1248 6.0928 4.5568 12.16 6.9888 17.92a41.6512 41.6512 0 0 0 9.4208 13.9776 256.8192 256.8192 0 0 1 20.0704 19.1488 40.448 40.448 0 0 1 10.24 26.1376v20.0704a60.8 60.8 0 0 1-3.0464 17.92 60.8 60.8 0 0 1-10.6496 17.024 99.84 99.84 0 0 1-21.2736 17.6384 126.4896 126.4896 0 0 1-39.8336 18.5344c-15.5136 4.2496-81.792 28.8768-96.0768 34.3552a119.5008 119.5008 0 0 0-37.4016 20.9664 66.2784 66.2784 0 0 0-19.7632 39.8336 160.5376 160.5376 0 0 0-2.7392 54.7328 58.368 58.368 0 0 0 10.6496 34.6624 132.864 132.864 0 0 0 34.3552 11.8528 1385.8304 1385.8304 0 0 0 276.992 28.5696 916.48 916.48 0 0 0 269.696-37.0944 46.208 46.208 0 0 0 18.8416-10.24 68.096 68.096 0 0 0 6.6816-22.8096 219.4432 219.4432 0 0 0 2.1248-31.9232c0-10.9568 0-2.1248-1.5104-13.0816a135.68 135.68 0 0 0-4.864-27.3664z m-258.1248 68.096a109.7984 109.7984 0 0 1-11.5456 12.8 91.2384 91.2384 0 0 1-13.3888 10.9568 19.7632 19.7632 0 0 1-10.24 4.5568 23.424 23.424 0 0 1-9.728-4.2496 119.808 119.808 0 0 1-13.6704-10.9568 97.92 97.92 0 0 1-11.8528-13.0816 17.6384 17.6384 0 0 1-4.864-9.728 98.816 98.816 0 0 1 2.1248-17.6384 132.1728 132.1728 0 0 1 5.12-24.6272c1.8176-8.5248 3.9424-17.024 6.3744-25.2416s3.3536-12.4672 5.12-18.5344a72.3712 72.3712 0 0 1-11.8528-13.6704 19.7632 19.7632 0 0 1-3.6608-11.2384 24.0128 24.0128 0 0 1 3.3536-11.5456 47.7184 47.7184 0 0 1 7.296-9.728 94.5664 94.5664 0 0 1 11.2384-10.24h32.8448l11.2384 10.24a35.2768 35.2768 0 0 1 8.2176 10.24 19.456 19.456 0 0 1 3.6608 11.5456 26.4448 26.4448 0 0 1-4.5568 13.9776 83.3024 83.3024 0 0 1-12.4672 12.8 175.0016 175.0016 0 0 0 4.5568 20.48l5.4784 25.2416a138.8032 138.8032 0 0 0 4.5568 23.424 99.1488 99.1488 0 0 1 1.8176 14.8992 18.2528 18.2528 0 0 1-4.864 10.0352z" fill="#313841" /><path d="M675.2768 782.5664a53.76 53.76 0 1 1 53.5552-53.5552 53.3248 53.3248 0 0 1-53.5552 53.5552z m143.9744-16.6656l49.5872-10.7008v-53.1456l-49.5872-10.24a145.92 145.92 0 0 0-15.872-38.0672l27.3664-42.4448-37.6832-37.6832-42.4448 27.3664a160.9472 160.9472 0 0 0-38.0672-15.872l-10.24-49.5872h-53.1456l-10.24 49.5872a160.9216 160.9216 0 0 0-38.0672 15.872l-42.4448-27.3664-37.6832 37.6832 27.776 42.4448a145.92 145.92 0 0 0-15.872 38.0672l-49.5872 10.24V755.2l49.5872 10.7008a160.8448 160.8448 0 0 0 15.872 38.0672l-27.776 42.4448 37.6832 37.6832 42.4448-27.776a145.92 145.92 0 0 0 38.0672 15.872l10.24 49.5872h53.1456l10.24-49.5872a145.92 145.92 0 0 0 38.0672-15.872l42.4448 27.776 37.6832-37.6832-27.3664-42.8288a151.4752 151.4752 0 0 0 15.8976-37.6576z" fill="#A4A4A4" /><path d="M675.3024 639.7952a88.8576 88.8576 0 1 0 88.8576 88.8576 88.704 88.704 0 0 0-88.8576-88.8576" fill="#020202" fill-opacity="0.2" /><path d="M675.2768 782.592a53.76 53.76 0 1 1 53.5552-53.5552 53.3248 53.3248 0 0 1-53.5552 53.5552" fill="#E8EAE9" /></svg>